  0
SECTION
  2
HEADER
  9
$ACADVER
  1
AC1009
  9
$INSBASE
 10
0.0
 20
0.0
 30
0.0
  9
$EXTMIN
 10
0.0
 20
0.0
 30
0.0
  9
$EXTMAX
 10
0.0
 20
0.0
 30
0.0
  0
ENDSEC
  0
SECTION
  2
TABLES
  0
TABLE
  2
VPORT
 70
0
  0
ENDTAB
  0
TABLE
  2
LTYPE
 70
1
  0
LTYPE
  2
CONTINUOUS
 70
0
  3
Solid line
 72
65
 73
0
 40
0.0
  0
ENDTAB
  0
TABLE
  2
LAYER
 70
1
  0
LAYER
  2
0
 70
64
 62
7
  6
continuous
  0
ENDTAB
  0
TABLE
  2
STYLE
 70
1
  0
STYLE
  2
STANDARD
 70
0
 40
0
 41
1.0
 50
0.0
 71
0
 42
1
 3
ARIAL.TTF
 4

  0
ENDTAB
  0
TABLE
  2
VIEW
 70
0
  0
ENDTAB
  0
ENDSEC
  0
SECTION
  2
BLOCKS
  0
BLOCK
  8
0
  2
CUT081
 70
0
 10
0.0
 20
0.0
 30
0.0
  3
CUT081
  0
LINE
  8
0
 62
0
 10
485.0
 20
-217.5
 30
0.0
 11
30.0
 21
-217.5
 31
0.0
  0
LINE
  8
0
 62
0
 10
485.0
 20
-217.5
 30
0.0
 11
525.0
 21
-177.5
 31
0.0
  0
LINE
  8
0
 62
0
 10
30.0
 20
-217.5
 30
0.0
 11
-10.0
 21
-177.5
 31
0.0
  0
LINE
  8
0
 62
0
 10
525.0
 20
92.5
 30
0.0
 11
525.0
 21
-177.5
 31
0.0
  0
LINE
  8
0
 62
0
 10
-10.0
 20
-177.5
 30
0.0
 11
-10.0
 21
92.5
 31
0.0
  0
LINE
  8
0
 62
0
 10
485.0
 20
132.5
 30
0.0
 11
525.0
 21
92.5
 31
0.0
  0
LINE
  8
0
 62
0
 10
-10.0
 20
92.5
 30
0.0
 11
30.0
 21
132.5
 31
0.0
  0
LINE
  8
0
 62
0
 10
30.0
 20
132.5
 30
0.0
 11
485.0
 21
132.5
 31
0.0
  0
CIRCLE
  8
0
 62
0
 10
515.0
 20
-42.5
 30
0.0
 40
2.0
  0
CIRCLE
  8
0
 62
0
 10
500.5
 20
-112.0
 30
0.0
 40
1.5
  0
CIRCLE
  8
0
 62
0
 10
477.875
 20
-155.0
 30
0.0
 40
21.0
  0
CIRCLE
  8
0
 62
0
 10
515.0
 20
-157.5
 30
0.0
 40
2.0
  0
CIRCLE
  8
0
 62
0
 10
500.5
 20
-193.0
 30
0.0
 40
1.5
  0
CIRCLE
  8
0
 62
0
 10
515.0
 20
72.4999999999
 30
0.0
 40
2.0
  0
CIRCLE
  8
0
 62
0
 10
354.5
 20
-193.0
 30
0.0
 40
1.5
  0
LINE
  8
0
 62
0
 10
450.75
 20
-181.5
 30
0.0
 11
371.0
 21
-181.5
 31
0.0
  0
LINE
  8
0
 62
0
 10
450.75
 20
-128.5
 30
0.0
 11
450.75
 21
-181.5
 31
0.0
  0
LINE
  8
0
 62
0
 10
371.0
 20
-181.5
 30
0.0
 11
371.0
 21
-128.5
 31
0.0
  0
LINE
  8
0
 62
0
 10
371.0
 20
-128.5
 30
0.0
 11
450.75
 21
-128.5
 31
0.0
  0
LINE
  8
0
 62
0
 10
485.0
 20
-107.5
 30
0.0
 11
485.0
 21
52.5
 31
0.0
  0
LINE
  8
0
 62
0
 10
485.0
 20
52.5
 30
0.0
 11
445.0
 21
92.5
 31
0.0
  0
LINE
  8
0
 62
0
 10
375.0
 20
-107.5
 30
0.0
 11
485.0
 21
-107.5
 31
0.0
  0
LINE
  8
0
 62
0
 10
445.0
 20
92.5
 30
0.0
 11
70.0
 21
92.5
 31
0.0
  0
LINE
  8
0
 62
0
 10
350.0
 20
-132.5
 30
0.0
 11
375.0
 21
-107.5
 31
0.0
  0
LINE
  8
0
 62
0
 10
70.0
 20
92.5
 30
0.0
 11
30.0
 21
52.5
 31
0.0
  0
LINE
  8
0
 62
0
 10
350.0
 20
-177.5
 30
0.0
 11
350.0
 21
-132.5
 31
0.0
  0
LINE
  8
0
 62
0
 10
30.0
 20
52.5
 30
0.0
 11
30.0
 21
-137.5
 31
0.0
  0
LINE
  8
0
 62
0
 10
70.0
 20
-177.5
 30
0.0
 11
350.0
 21
-177.5
 31
0.0
  0
LINE
  8
0
 62
0
 10
30.0
 20
-137.5
 30
0.0
 11
70.0
 21
-177.5
 31
0.0
  0
CIRCLE
  8
0
 62
0
 10
381.242640687
 20
-112.0
 30
0.0
 40
1.5
  0
CIRCLE
  8
0
 62
0
 10
354.5
 20
-138.742640687
 30
0.0
 40
1.5
  0
CIRCLE
  8
0
 62
0
 10
0.0
 20
72.5
 30
0.0
 40
2.0
  0
CIRCLE
  8
0
 62
0
 10
0.0
 20
-157.5
 30
0.0
 40
2.0
  0
CIRCLE
  8
0
 62
0
 10
0.0
 20
-42.5
 30
0.0
 40
2.0
  0
CIRCLE
  8
0
 62
0
 10
465.0
 20
-207.5
 30
0.0
 40
2.0
  0
CIRCLE
  8
0
 62
0
 10
257.5
 20
-207.5
 30
0.0
 40
2.0
  0
CIRCLE
  8
0
 62
0
 10
50.0
 20
-207.5
 30
0.0
 40
2.0
  0
CIRCLE
  8
0
 62
0
 10
50.0
 20
122.5
 30
0.0
 40
2.0
  0
CIRCLE
  8
0
 62
0
 10
257.5
 20
122.5
 30
0.0
 40
2.0
  0
CIRCLE
  8
0
 62
0
 10
465.0
 20
122.5
 30
0.0
 40
2.0
  0
ENDBLK
  0
ENDSEC
  0
SECTION
  2
ENTITIES
  0
INSERT
  2
CUT081
  8
0
 62
0
 10
0.0
 20
0.0
 30
0.0
  0
ENDSEC
  0
EOF
