  0
SECTION
  2
HEADER
  9
$ACADVER
  1
AC1009
  9
$INSBASE
 10
0.0
 20
0.0
 30
0.0
  9
$EXTMIN
 10
0.0
 20
0.0
 30
0.0
  9
$EXTMAX
 10
0.0
 20
0.0
 30
0.0
  0
ENDSEC
  0
SECTION
  2
TABLES
  0
TABLE
  2
VPORT
 70
0
  0
ENDTAB
  0
TABLE
  2
LTYPE
 70
1
  0
LTYPE
  2
CONTINUOUS
 70
0
  3
Solid line
 72
65
 73
0
 40
0.0
  0
ENDTAB
  0
TABLE
  2
LAYER
 70
1
  0
LAYER
  2
0
 70
64
 62
7
  6
continuous
  0
ENDTAB
  0
TABLE
  2
STYLE
 70
1
  0
STYLE
  2
STANDARD
 70
0
 40
0
 41
1.0
 50
0.0
 71
0
 42
1
 3
ARIAL.TTF
 4

  0
ENDTAB
  0
TABLE
  2
VIEW
 70
0
  0
ENDTAB
  0
ENDSEC
  0
SECTION
  2
BLOCKS
  0
BLOCK
  8
0
  2
CUT133
 70
0
 10
0.0
 20
0.0
 30
0.0
  3
CUT133
  0
LINE
  8
0
 62
0
 10
30.0
 20
552.500014603
 30
0.0
 11
246.0
 21
552.500014603
 31
0.0
  0
ARC
  8
0
 62
0
 10
246.0
 20
547.500014603
 30
0.0
 40
5.0
 50
-0.0
 51
90.0
  0
LINE
  8
0
 62
0
 10
-10.0
 20
512.500014603
 30
0.0
 11
30.0
 21
552.500014603
 31
0.0
  0
LINE
  8
0
 62
0
 10
251.0
 20
547.500014603
 30
0.0
 11
251.0
 21
502.500014603
 31
0.0
  0
LINE
  8
0
 62
0
 10
-10.0
 20
242.500014603
 30
0.0
 11
-10.0
 21
512.500014603
 31
0.0
  0
LINE
  8
0
 62
0
 10
251.0
 20
502.500014603
 30
0.0
 11
264.0
 21
502.500014603
 31
0.0
  0
LINE
  8
0
 62
0
 10
30.0
 20
202.500014603
 30
0.0
 11
-10.0
 21
242.500014603
 31
0.0
  0
LINE
  8
0
 62
0
 10
264.0
 20
502.500014603
 30
0.0
 11
264.0
 21
547.500014603
 31
0.0
  0
LINE
  8
0
 62
0
 10
485.0
 20
202.500014603
 30
0.0
 11
30.0
 21
202.500014603
 31
0.0
  0
ARC
  8
0
 62
0
 10
269.0
 20
547.500014603
 30
0.0
 40
5.0
 50
90.0
 51
-180.0
  0
LINE
  8
0
 62
0
 10
525.0
 20
242.500014603
 30
0.0
 11
485.0
 21
202.500014603
 31
0.0
  0
LINE
  8
0
 62
0
 10
269.0
 20
552.500014603
 30
0.0
 11
485.0
 21
552.500014603
 31
0.0
  0
LINE
  8
0
 62
0
 10
525.0
 20
512.500014603
 30
0.0
 11
525.0
 21
242.500014603
 31
0.0
  0
LINE
  8
0
 62
0
 10
485.0
 20
552.500014603
 30
0.0
 11
525.0
 21
512.500014603
 31
0.0
  0
CIRCLE
  8
0
 62
0
 10
383.25
 20
362.500014603
 30
0.0
 40
1.65
  0
CIRCLE
  8
0
 62
0
 10
131.75
 20
362.500014603
 30
0.0
 40
1.65
  0
CIRCLE
  8
0
 62
0
 10
289.0
 20
474.500014603
 30
0.0
 40
1.25
  0
CIRCLE
  8
0
 62
0
 10
383.25
 20
392.500014603
 30
0.0
 40
1.65
  0
CIRCLE
  8
0
 62
0
 10
226.0
 20
474.500014603
 30
0.0
 40
1.25
  0
CIRCLE
  8
0
 62
0
 10
211.0
 20
474.500014603
 30
0.0
 40
1.25
  0
LINE
  8
0
 62
0
 10
347.0
 20
496.500014603
 30
0.0
 11
357.0
 21
496.500014603
 31
0.0
  0
ARC
  8
0
 62
0
 10
347.0
 20
501.500014603
 30
0.0
 40
5.0
 50
90.0
 51
-90.0
  0
LINE
  8
0
 62
0
 10
357.0
 20
496.500014603
 30
0.0
 11
357.0
 21
506.500014603
 31
0.0
  0
LINE
  8
0
 62
0
 10
357.0
 20
506.500014603
 30
0.0
 11
347.0
 21
506.500014603
 31
0.0
  0
CIRCLE
  8
0
 62
0
 10
269.0
 20
507.500014603
 30
0.0
 40
1.25
  0
CIRCLE
  8
0
 62
0
 10
115.75
 20
362.500014603
 30
0.0
 40
1.65
  0
CIRCLE
  8
0
 62
0
 10
50.0
 20
542.500014603
 30
0.0
 40
2.0
  0
CIRCLE
  8
0
 62
0
 10
231.0
 20
542.500014603
 30
0.0
 40
2.0
  0
CIRCLE
  8
0
 62
0
 10
131.75
 20
392.500014603
 30
0.0
 40
1.65
  0
CIRCLE
  8
0
 62
0
 10
115.75
 20
392.500014603
 30
0.0
 40
1.65
  0
LINE
  8
0
 62
0
 10
168.0
 20
506.500014603
 30
0.0
 11
158.0
 21
506.500014603
 31
0.0
  0
ARC
  8
0
 62
0
 10
168.0
 20
501.500014603
 30
0.0
 40
5.0
 50
-90.0
 51
90.0
  0
LINE
  8
0
 62
0
 10
158.0
 20
506.500014603
 30
0.0
 11
158.0
 21
496.500014603
 31
0.0
  0
LINE
  8
0
 62
0
 10
158.0
 20
496.500014603
 30
0.0
 11
168.0
 21
496.500014603
 31
0.0
  0
CIRCLE
  8
0
 62
0
 10
226.0
 20
528.500014603
 30
0.0
 40
1.25
  0
CIRCLE
  8
0
 62
0
 10
211.0
 20
528.500014603
 30
0.0
 40
1.25
  0
CIRCLE
  8
0
 62
0
 10
304.0
 20
528.500014603
 30
0.0
 40
1.25
  0
CIRCLE
  8
0
 62
0
 10
246.0
 20
507.500014603
 30
0.0
 40
1.25
  0
CIRCLE
  8
0
 62
0
 10
50.0
 20
212.500014603
 30
0.0
 40
2.0
  0
CIRCLE
  8
0
 62
0
 10
465.0
 20
212.500014603
 30
0.0
 40
2.0
  0
CIRCLE
  8
0
 62
0
 10
257.5
 20
212.500014603
 30
0.0
 40
2.0
  0
CIRCLE
  8
0
 62
0
 10
399.25
 20
392.500014603
 30
0.0
 40
1.65
  0
CIRCLE
  8
0
 62
0
 10
399.25
 20
362.500014603
 30
0.0
 40
1.65
  0
CIRCLE
  8
0
 62
0
 10
465.0
 20
542.500014603
 30
0.0
 40
2.0
  0
CIRCLE
  8
0
 62
0
 10
284.0
 20
542.500014603
 30
0.0
 40
2.0
  0
CIRCLE
  8
0
 62
0
 10
304.0
 20
474.500014603
 30
0.0
 40
1.25
  0
CIRCLE
  8
0
 62
0
 10
289.0
 20
528.500014603
 30
0.0
 40
1.25
  0
CIRCLE
  8
0
 62
0
 10
269.0
 20
547.500014603
 30
0.0
 40
1.25
  0
CIRCLE
  8
0
 62
0
 10
246.0
 20
547.500014603
 30
0.0
 40
1.25
  0
CIRCLE
  8
0
 62
0
 10
515.0
 20
262.500014603
 30
0.0
 40
2.0
  0
CIRCLE
  8
0
 62
0
 10
515.0
 20
377.500014603
 30
0.0
 40
2.0
  0
CIRCLE
  8
0
 62
0
 10
515.0
 20
492.500014603
 30
0.0
 40
2.0
  0
CIRCLE
  8
0
 62
0
 10
494.0
 20
289.999992371
 30
0.0
 40
1.65
  0
CIRCLE
  8
0
 62
0
 10
0.0
 20
377.500014603
 30
0.0
 40
2.0
  0
CIRCLE
  8
0
 62
0
 10
0.0
 20
492.500014603
 30
0.0
 40
2.0
  0
CIRCLE
  8
0
 62
0
 10
0.0
 20
262.500014603
 30
0.0
 40
2.0
  0
ENDBLK
  0
ENDSEC
  0
SECTION
  2
ENTITIES
  0
INSERT
  2
CUT133
  8
0
 62
0
 10
0.0
 20
0.0
 30
0.0
  0
ENDSEC
  0
EOF
