  0
SECTION
  2
HEADER
  9
$ACADVER
  1
AC1009
  9
$INSBASE
 10
0.0
 20
0.0
 30
0.0
  9
$EXTMIN
 10
0.0
 20
0.0
 30
0.0
  9
$EXTMAX
 10
0.0
 20
0.0
 30
0.0
  0
ENDSEC
  0
SECTION
  2
TABLES
  0
TABLE
  2
VPORT
 70
0
  0
ENDTAB
  0
TABLE
  2
LTYPE
 70
1
  0
LTYPE
  2
CONTINUOUS
 70
0
  3
Solid line
 72
65
 73
0
 40
0.0
  0
ENDTAB
  0
TABLE
  2
LAYER
 70
1
  0
LAYER
  2
0
 70
64
 62
7
  6
continuous
  0
ENDTAB
  0
TABLE
  2
STYLE
 70
1
  0
STYLE
  2
STANDARD
 70
0
 40
0
 41
1.0
 50
0.0
 71
0
 42
1
 3
ARIAL.TTF
 4

  0
ENDTAB
  0
TABLE
  2
VIEW
 70
0
  0
ENDTAB
  0
ENDSEC
  0
SECTION
  2
BLOCKS
  0
BLOCK
  8
0
  2
CHAMFER001
 70
0
 10
0.0
 20
0.0
 30
0.0
  3
CHAMFER001
  0
LINE
  8
0
 62
7
 10
349.500003525703
 20
360.8645501896815
 30
0.0
 11
559.5000035257018
 21
360.8645501896815
 31
0.0
  0
LINE
  8
0
 62
7
 10
349.500003525703
 20
360.8645501896815
 30
0.0
 11
344.500003525703
 21
355.8645501896815
 31
0.0
  0
LINE
  8
0
 62
7
 10
559.5000035257018
 20
360.8645501896815
 30
0.0
 11
564.5000035257018
 21
355.8645501896815
 31
0.0
  0
LINE
  8
0
 62
7
 10
344.500003525703
 20
54.61150186251644
 30
0.0
 11
344.500003525703
 21
355.8645501896815
 31
0.0
  0
LINE
  8
0
 62
7
 10
564.5000035257018
 20
355.8645501896815
 30
0.0
 11
564.5000035257018
 21
54.611501862516434
 31
0.0
  0
LINE
  8
0
 62
7
 10
349.500003525703
 20
49.611501862516455
 30
0.0
 11
344.500003525703
 21
54.611501862516455
 31
0.0
  0
LINE
  8
0
 62
7
 10
564.5000035257018
 20
54.61150186251644
 30
0.0
 11
559.5000035257018
 21
49.61150186251643
 31
0.0
  0
LINE
  8
0
 62
7
 10
559.5000035257018
 20
49.61150186251643
 30
0.0
 11
349.500003525703
 21
49.61150186251643
 31
0.0
  0
LINE
  8
0
 62
7
 10
443.8934018078935
 20
187.895773109932
 30
0.0
 11
397.78427477310015
 21
234.00490014473633
 31
0.0
  0
LINE
  8
0
 62
7
 10
443.8934018078935
 20
187.89577310993204
 30
0.0
 11
465.10660524349026
 21
187.89577310992917
 31
0.0
  0
LINE
  8
0
 62
7
 10
397.7842747731001
 20
234.00490014473633
 30
0.0
 11
402.17767305530316
 21
244.6115018625358
 31
0.0
  0
LINE
  8
0
 62
7
 10
511.21573227831453
 20
234.00490014473917
 30
0.0
 11
465.10660524349026
 21
187.8957731099291
 31
0.0
  0
LINE
  8
0
 62
7
 10
402.1776730553032
 20
244.61150186253573
 30
0.0
 11
506.8223339961144
 21
244.61150186253573
 31
0.0
  0
LINE
  8
0
 62
7
 10
506.8223339961145
 20
244.61150186253576
 30
0.0
 11
511.21573227831465
 21
234.0049001447392
 31
0.0
  0
CIRCLE
  8
0
 62
7
 10
462.00000352569043
 20
294.61150186253576
 30
0.0
 40
10.0
  0
CIRCLE
  8
0
 62
7
 10
525.5000035257033
 20
345.8645501896547
 30
0.0
 40
6.000000000001227
  0
CIRCLE
  8
0
 62
7
 10
454.5000033208128
 20
331.86455018968064
 30
0.0
 40
6.0
  0
CIRCLE
  8
0
 62
7
 10
383.50000352570214
 20
345.864550189675
 30
0.0
 40
5.9999999999958415
  0
CIRCLE
  8
0
 62
7
 10
462.00000352569043
 20
254.61150186253573
 30
0.0
 40
2.5
  0
CIRCLE
  8
0
 62
7
 10
447.00000352569043
 20
254.61150186253573
 30
0.0
 40
2.5
  0
CIRCLE
  8
0
 62
7
 10
462.00000352568804
 20
159.6115018624692
 30
0.0
 40
2.5
  0
CIRCLE
  8
0
 62
7
 10
447.00000352568804
 20
159.6115018624692
 30
0.0
 40
2.5
  0
CIRCLE
  8
0
 62
7
 10
413.8108926581575
 20
328.364550189675
 30
0.0
 40
1.65
  0
CIRCLE
  8
0
 62
7
 10
437.500003320808
 20
331.8645501896788
 30
0.0
 40
1.65
  0
CIRCLE
  8
0
 62
7
 10
446.00000332081265
 20
317.1421183253453
 30
0.0
 40
1.65
  0
CIRCLE
  8
0
 62
7
 10
463.00000332081294
 20
317.1421183253453
 30
0.0
 40
1.65
  0
CIRCLE
  8
0
 62
7
 10
471.5000033208128
 20
331.8645501896812
 30
0.0
 40
1.65
  0
CIRCLE
  8
0
 62
7
 10
463.000003320812
 20
346.5869820540166
 30
0.0
 40
1.65
  0
CIRCLE
  8
0
 62
7
 10
446.0000033208117
 20
346.58698205401544
 30
0.0
 40
1.65
  0
CIRCLE
  8
0
 62
7
 10
515.2469551984857
 20
335.6115018624594
 30
0.0
 40
1.65
  0
CIRCLE
  8
0
 62
7
 10
535.7653080305332
 20
335.59924568477834
 30
0.0
 40
1.65
  0
CIRCLE
  8
0
 62
7
 10
535.7565417895033
 20
356.11453792460344
 30
0.0
 40
1.65
  0
CIRCLE
  8
0
 62
7
 10
515.2475082160652
 20
356.1159693796413
 30
0.0
 40
1.65
  0
CIRCLE
  8
0
 62
7
 10
373.24695519856664
 20
335.61150186246647
 30
0.0
 40
1.65
  0
CIRCLE
  8
0
 62
7
 10
393.75305185290745
 20
335.61150186246255
 30
0.0
 40
1.65
  0
CIRCLE
  8
0
 62
7
 10
393.7530518529514
 20
356.1175985168583
 30
0.0
 40
1.65
  0
CIRCLE
  8
0
 62
7
 10
373.2469551985003
 20
356.1175985168744
 30
0.0
 40
1.65
  0
CIRCLE
  8
0
 62
7
 10
350.00000352569737
 20
264.1115018624848
 30
0.0
 40
1.6
  0
CIRCLE
  8
0
 62
7
 10
559.0000035257007
 20
264.11150186244953
 30
0.0
 40
1.6
  0
CIRCLE
  8
0
 62
7
 10
350.0000035256717
 20
55.11150186248511
 30
0.0
 40
1.6
  0
CIRCLE
  8
0
 62
7
 10
559.0000035256709
 20
55.11150186246153
 30
0.0
 40
1.6
  0
LINE
  8
0
 62
7
 10
380.1066052434373
 20
102.8957731099024
 30
0.0
 11
426.2157322782241
 21
149.004900144675
 31
0.0
  0
LINE
  8
0
 62
7
 10
380.1066052434373
 20
102.8957731099024
 30
0.0
 11
369.50000352563745
 21
107.28917139210581
 31
0.0
  0
LINE
  8
0
 62
7
 10
426.2157322782241
 20
149.004900144675
 30
0.0
 11
426.215732278227
 21
170.21810358027105
 31
0.0
  0
LINE
  8
0
 62
7
 10
369.50000352563745
 20
211.93383233287418
 30
0.0
 11
369.50000352563745
 21
107.28917139210579
 31
0.0
  0
LINE
  8
0
 62
7
 10
426.21573227822705
 20
170.21810358027105
 30
0.0
 11
380.1066052434344
 21
216.3272306150747
 31
0.0
  0
LINE
  8
0
 62
7
 10
380.1066052434344
 20
216.32723061507468
 30
0.0
 11
369.50000352563745
 21
211.93383233287415
 31
0.0
  0
LINE
  8
0
 62
7
 10
402.17767305529844
 20
74.61150186243941
 30
0.0
 11
506.82233399603604
 21
74.61150186243941
 31
0.0
  0
LINE
  8
0
 62
7
 10
402.17767305529844
 20
74.61150186243941
 30
0.0
 11
397.7842747730983
 21
85.218103580236
 31
0.0
  0
LINE
  8
0
 62
7
 10
506.82233399603604
 20
74.61150186243941
 30
0.0
 11
511.2157322782391
 21
85.21810358023889
 31
0.0
  0
LINE
  8
0
 62
7
 10
443.8934018078857
 20
131.32723061500923
 30
0.0
 11
397.7842747730983
 21
85.218103580236
 31
0.0
  0
LINE
  8
0
 62
7
 10
511.2157322782391
 20
85.21810358023889
 30
0.0
 11
465.1066052434825
 21
131.32723061500639
 31
0.0
  0
LINE
  8
0
 62
7
 10
465.1066052434825
 20
131.32723061500636
 30
0.0
 11
443.8934018078857
 21
131.32723061500926
 31
0.0
  0
LINE
  8
0
 62
7
 10
482.7842747731489
 20
149.00490014466735
 30
0.0
 11
528.8934018079049
 21
102.89577310990043
 31
0.0
  0
LINE
  8
0
 62
7
 10
482.7842747731489
 20
149.00490014466732
 30
0.0
 11
482.7842747731518
 21
170.21810358026335
 31
0.0
  0
LINE
  8
0
 62
7
 10
528.8934018079049
 20
102.89577310990049
 30
0.0
 11
539.5000035257018
 21
107.28917139210101
 31
0.0
  0
LINE
  8
0
 62
7
 10
528.893401807902
 20
216.3272306149992
 30
0.0
 11
482.7842747731519
 21
170.21810358026335
 31
0.0
  0
LINE
  8
0
 62
7
 10
539.5000035257018
 20
107.28917139210104
 30
0.0
 11
539.5000035257018
 21
211.9338323327958
 31
0.0
  0
LINE
  8
0
 62
7
 10
539.5000035257017
 20
211.93383233279582
 30
0.0
 11
528.8934018079019
 21
216.32723061499922
 31
0.0
  0
ENDBLK
  0
ENDSEC
  0
SECTION
  2
ENTITIES
  0
INSERT
  2
CHAMFER001
  8
0
 62
7
 10
0.0
 20
0.0
 30
0.0
  0
ENDSEC
  0
EOF
