  0
SECTION
  2
HEADER
  9
$ACADVER
  1
AC1009
  9
$INSBASE
 10
0.0
 20
0.0
 30
0.0
  9
$EXTMIN
 10
0.0
 20
0.0
 30
0.0
  9
$EXTMAX
 10
0.0
 20
0.0
 30
0.0
  0
ENDSEC
  0
SECTION
  2
TABLES
  0
TABLE
  2
VPORT
 70
0
  0
ENDTAB
  0
TABLE
  2
LTYPE
 70
1
  0
LTYPE
  2
CONTINUOUS
 70
0
  3
Solid line
 72
65
 73
0
 40
0.0
  0
ENDTAB
  0
TABLE
  2
LAYER
 70
1
  0
LAYER
  2
0
 70
64
 62
7
  6
continuous
  0
ENDTAB
  0
TABLE
  2
STYLE
 70
1
  0
STYLE
  2
STANDARD
 70
0
 40
0
 41
1.0
 50
0.0
 71
0
 42
1
 3
ARIAL.TTF
 4

  0
ENDTAB
  0
TABLE
  2
VIEW
 70
0
  0
ENDTAB
  0
ENDSEC
  0
SECTION
  2
BLOCKS
  0
BLOCK
  8
plates
  2
CUT085
 70
0
 10
0.0
 20
0.0
 30
0.0
  3
CUT085
  0
LINE
  8
plates
 62
0
 10
485.0
 20
242.50001967
 30
0.0
 11
272.5
 21
242.50001967
 31
0.0
  0
LINE
  8
plates
 62
0
 10
267.5
 20
237.50001967
 30
0.0
 11
272.5
 21
242.50001967
 31
0.0
  0
LINE
  8
plates
 62
0
 10
247.5
 20
237.50001967
 30
0.0
 11
267.5
 21
237.50001967
 31
0.0
  0
LINE
  8
plates
 62
0
 10
242.5
 20
242.50001967
 30
0.0
 11
247.5
 21
237.50001967
 31
0.0
  0
LINE
  8
plates
 62
0
 10
242.5
 20
242.50001967
 30
0.0
 11
30.0
 21
242.50001967
 31
0.0
  0
LINE
  8
plates
 62
0
 10
30.0
 20
242.50001967
 30
0.0
 11
-10.0
 21
202.50001967
 31
0.0
  0
LINE
  8
plates
 62
0
 10
-10.0
 20
202.50001967
 30
0.0
 11
-10.0
 21
-137.49998033
 31
0.0
  0
LINE
  8
plates
 62
0
 10
30.0
 20
-177.49998033
 30
0.0
 11
-10.0
 21
-137.49998033
 31
0.0
  0
LINE
  8
plates
 62
0
 10
30.0
 20
-177.49998033
 30
0.0
 11
485.0
 21
-177.49998033
 31
0.0
  0
LINE
  8
plates
 62
0
 10
485.0
 20
-177.49998033
 30
0.0
 11
525.0
 21
-137.49998033
 31
0.0
  0
LINE
  8
plates
 62
0
 10
525.0
 20
-137.49998033
 30
0.0
 11
525.0
 21
202.50001967
 31
0.0
  0
LINE
  8
plates
 62
0
 10
525.0
 20
202.50001967
 30
0.0
 11
485.0
 21
242.50001967
 31
0.0
  0
LINE
  8
plates
 62
0
 10
39.5
 20
-121.49998033
 30
0.0
 11
475.5
 21
-121.49998033
 31
0.0
  0
ARC
  8
plates
 62
0
 10
39.5
 20
-119.49998033
 30
0.0
 40
2.0
 50
180.0
 51
-90.0
  0
ARC
  8
plates
 62
0
 10
475.5
 20
-119.49998033
 30
0.0
 40
2.0
 50
-90.0
 51
0.0
  0
LINE
  8
plates
 62
0
 10
37.5
 20
178.50001967
 30
0.0
 11
37.5
 21
-119.49998033
 31
0.0
  0
LINE
  8
plates
 62
0
 10
477.5
 20
-119.49998033
 30
0.0
 11
477.5
 21
178.50001967
 31
0.0
  0
ARC
  8
plates
 62
0
 10
39.5
 20
178.50001967
 30
0.0
 40
2.0
 50
90.0
 51
-180.0
  0
ARC
  8
plates
 62
0
 10
475.5
 20
178.50001967
 30
0.0
 40
2.0
 50
-0.0
 51
90.0
  0
LINE
  8
plates
 62
0
 10
475.5
 20
180.50001967
 30
0.0
 11
39.5
 21
180.50001967
 31
0.0
  0
CIRCLE
  8
plates
 62
0
 10
465.0
 20
-167.49998033
 30
0.0
 40
2.0
  0
CIRCLE
  8
plates
 62
0
 10
257.5
 20
-167.49998033
 30
0.0
 40
2.0
  0
CIRCLE
  8
plates
 62
0
 10
50.0
 20
-167.49998033
 30
0.0
 40
2.0
  0
CIRCLE
  8
plates
 62
0
 10
465.0
 20
232.50001967
 30
0.0
 40
2.0
  0
CIRCLE
  8
plates
 62
0
 10
257.5
 20
232.50001967
 30
0.0
 40
2.0
  0
CIRCLE
  8
plates
 62
0
 10
50.0
 20
232.50001967
 30
0.0
 40
2.0
  0
CIRCLE
  8
plates
 62
0
 10
8.9e-16
 20
-117.49998033
 30
0.0
 40
2.0
  0
CIRCLE
  8
plates
 62
0
 10
8.9e-16
 20
32.5000196695
 30
0.0
 40
2.0
  0
CIRCLE
  8
plates
 62
0
 10
8.9e-16
 20
182.50001967
 30
0.0
 40
2.0
  0
CIRCLE
  8
plates
 62
0
 10
515.0
 20
182.50001967
 30
0.0
 40
2.0
  0
CIRCLE
  8
plates
 62
0
 10
515.0
 20
32.5000196695
 30
0.0
 40
2.0
  0
CIRCLE
  8
plates
 62
0
 10
515.0
 20
-117.49998033
 30
0.0
 40
2.0
  0
ENDBLK
  0
ENDSEC
  0
SECTION
  2
ENTITIES
  0
INSERT
  2
CUT085
  8
plates
 62
0
 10
0.0
 20
0.0
 30
0.0
  0
ENDSEC
  0
EOF
