  0
SECTION
  2
HEADER
  9
$ACADVER
  1
AC1009
  9
$INSBASE
 10
0.0
 20
0.0
 30
0.0
  9
$EXTMIN
 10
0.0
 20
0.0
 30
0.0
  9
$EXTMAX
 10
0.0
 20
0.0
 30
0.0
  0
ENDSEC
  0
SECTION
  2
TABLES
  0
TABLE
  2
VPORT
 70
0
  0
ENDTAB
  0
TABLE
  2
LTYPE
 70
1
  0
LTYPE
  2
CONTINUOUS
 70
0
  3
Solid line
 72
65
 73
0
 40
0.0
  0
ENDTAB
  0
TABLE
  2
LAYER
 70
1
  0
LAYER
  2
0
 70
64
 62
7
  6
continuous
  0
ENDTAB
  0
TABLE
  2
STYLE
 70
1
  0
STYLE
  2
STANDARD
 70
0
 40
0
 41
1.0
 50
0.0
 71
0
 42
1
 3
ARIAL.TTF
 4

  0
ENDTAB
  0
TABLE
  2
VIEW
 70
0
  0
ENDTAB
  0
ENDSEC
  0
SECTION
  2
BLOCKS
  0
BLOCK
  8
electronics_over_unfold_k0.46_DIN001
  2
SKETCH071
 70
0
 10
0.0
 20
0.0
 30
0.0
  3
SKETCH071
  0
CIRCLE
  8
electronics_over_unfold_k0.46_DIN001
 62
7
 10
124.9999999999999
 20
207.77020050287342
 30
0.0
 40
2.1
  0
CIRCLE
  8
electronics_over_unfold_k0.46_DIN001
 62
7
 10
-190.00001966953496
 20
12.500022232499987
 30
0.0
 40
2.1
  0
CIRCLE
  8
electronics_over_unfold_k0.46_DIN001
 62
7
 10
-40.00000000000008
 20
207.77020050287342
 30
0.0
 40
2.1
  0
CIRCLE
  8
electronics_over_unfold_k0.46_DIN001
 62
7
 10
-40.00001966953497
 20
12.500022232499987
 30
0.0
 40
2.1
  0
CIRCLE
  8
electronics_over_unfold_k0.46_DIN001
 62
7
 10
125.00001966953491
 20
12.500022232499987
 30
0.0
 40
2.1
  0
ENDBLK
  0
BLOCK
  8
electronics_over_unfold_k0.46_DIN001
  2
SKETCH072
 70
0
 10
0.0
 20
0.0
 30
0.0
  3
SKETCH072
  0
POLYLINE
  8
electronics_over_unfold_k0.46_DIN001
 62
12
 70
0
 66
1
 10
0.0
 20
0.0
 30
0.0
  0
VERTEX
  8
electronics_over_unfold_k0.46_DIN001
 10
-241.50000000000009
 20
100.14872374714665
 30
0.0
  0
VERTEX
  8
electronics_over_unfold_k0.46_DIN001
 10
176.49999999999991
 20
100.14872374714678
 30
0.0
  0
SEQEND
  8
electronics_over_unfold_k0.46_DIN001
  0
POLYLINE
  8
electronics_over_unfold_k0.46_DIN001
 62
12
 70
0
 66
1
 10
0.0
 20
0.0
 30
0.0
  0
VERTEX
  8
electronics_over_unfold_k0.46_DIN001
 10
-241.50000000000009
 20
71.62149898824059
 30
0.0
  0
VERTEX
  8
electronics_over_unfold_k0.46_DIN001
 10
176.49999999999991
 20
71.62149898824075
 30
0.0
  0
SEQEND
  8
electronics_over_unfold_k0.46_DIN001
  0
ENDBLK
  0
ENDSEC
  0
SECTION
  2
ENTITIES
  0
POLYLINE
  8
electronics_over_unfold_k0.46_DIN001
 62
7
 70
1
 66
1
 10
0.0
 20
0.0
 30
0.0
  0
VERTEX
  8
electronics_over_unfold_k0.46_DIN001
 10
176.4999999999999
 20
199.2702005028736
 30
0.0
  0
VERTEX
  8
electronics_over_unfold_k0.46_DIN001
 10
156.50000298023195
 20
199.2702005028736
 30
0.0
  0
VERTEX
  8
electronics_over_unfold_k0.46_DIN001
 10
156.50000298023195
 20
219.77020050287356
 30
0.0
  0
VERTEX
  8
electronics_over_unfold_k0.46_DIN001
 10
-127.40640485208024
 20
219.77020050287354
 30
0.0
  0
VERTEX
  8
electronics_over_unfold_k0.46_DIN001
 10
-127.40640485208024
 20
217.27020050287183
 30
0.0
  0
VERTEX
  8
electronics_over_unfold_k0.46_DIN001
 10
-129.4289292079044
 20
217.27020050287177
 30
0.0
  0
VERTEX
  8
electronics_over_unfold_k0.46_DIN001
 10
-129.4289292079044
 20
194.85598694049827
 30
0.0
  0
VERTEX
  8
electronics_over_unfold_k0.46_DIN001
 10
-137.01471564552924
 20
187.2702005028735
 30
0.0
  0
VERTEX
  8
electronics_over_unfold_k0.46_DIN001
 10
-187.98527839400867
 20
187.27020050287348
 30
0.0
  0
VERTEX
  8
electronics_over_unfold_k0.46_DIN001
 10
-195.5710648316346
 20
194.8559869404994
 30
0.0
  0
VERTEX
  8
electronics_over_unfold_k0.46_DIN001
 10
-195.57106483163457
 20
199.27020050287345
 30
0.0
  0
VERTEX
  8
electronics_over_unfold_k0.46_DIN001
 10
-241.5000000000001
 20
199.27020050287345
 30
0.0
  0
VERTEX
  8
electronics_over_unfold_k0.46_DIN001
 10
-241.50000000000006
 20
21.000022232499987
 30
0.0
  0
VERTEX
  8
electronics_over_unfold_k0.46_DIN001
 10
-221.500019669535
 20
21.000022232499987
 30
0.0
  0
VERTEX
  8
electronics_over_unfold_k0.46_DIN001
 10
-221.500019669535
 20
0.5000222324998554
 30
0.0
  0
VERTEX
  8
electronics_over_unfold_k0.46_DIN001
 10
12.809699999999994
 20
0.5000222324999335
 30
0.0
  0
VERTEX
  8
electronics_over_unfold_k0.46_DIN001
 10
12.809699999999992
 20
15.115929999999999
 30
0.0
 42
-0.41421356237309503
  0
VERTEX
  8
electronics_over_unfold_k0.46_DIN001
 10
13.809699999999992
 20
16.11593
 30
0.0
  0
VERTEX
  8
electronics_over_unfold_k0.46_DIN001
 10
40.10969999999999
 20
16.11593
 30
0.0
 42
-0.41421356237309503
  0
VERTEX
  8
electronics_over_unfold_k0.46_DIN001
 10
41.10969999999999
 20
15.115929999999999
 30
0.0
  0
VERTEX
  8
electronics_over_unfold_k0.46_DIN001
 10
41.109700000000004
 20
0.5000222324999422
 30
0.0
  0
VERTEX
  8
electronics_over_unfold_k0.46_DIN001
 10
156.499980330465
 20
0.50002223249998
 30
0.0
  0
VERTEX
  8
electronics_over_unfold_k0.46_DIN001
 10
156.499980330465
 20
21.000022232499987
 30
0.0
  0
VERTEX
  8
electronics_over_unfold_k0.46_DIN001
 10
176.49999999999994
 20
21.000022232499987
 30
0.0
  0
SEQEND
  8
electronics_over_unfold_k0.46_DIN001
  0
INSERT
  2
SKETCH071
  8
electronics_over_unfold_k0.46_DIN001
 62
7
 10
0.0
 20
0.0
 30
0.0
  0
INSERT
  2
SKETCH072
  8
electronics_over_unfold_k0.46_DIN001
 62
12
 10
0.0
 20
0.0
 30
0.0
  0
ENDSEC
  0
EOF
